<svg width="130" height="42" viewBox="0 0 130 42" fill="none" xmlns="http://www.w3.org/2000/svg">
<g clip-path="url(#clip0)">
<path d="M16.4469 8.61653H0.874885V-0.0432587H25.0203V8.61653L19.5526 19.1815L24.8452 41.8701H16.7093L14.1287 29.8329L8.13587 41.8701H0L16.4469 8.61653Z" fill="#F30063"/>
<path d="M31.1443 7.62939e-05H55.2897V41.8701H47.1538V21.6929H39.1491V30.7422H31.0132L31.1443 7.62939e-05ZM39.2804 12.9898H47.1101V8.65987H39.1491L39.2804 12.9898Z" fill="#F30063"/>
<path d="M61.3696 24.204V16.1505H85.2962V24.204H61.3696Z" fill="#F30063"/>
<path d="M99.4681 0.0434113V17.103H115.39V25.7627H99.4681V41.9568H91.6384V0.0864882L99.4681 0.0434113Z" fill="#F30063"/>
<path d="M121.907 0.562973H130.044V27.3217H121.907V0.562973ZM121.907 33.3401H130.044V41.9999H121.907V33.3401Z" fill="#F30063"/>
</g>
<defs>
<clipPath id="clip0">
<rect width="130" height="42" fill="white"/>
</clipPath>
</defs>
</svg>
