<svg width="324" height="58" viewBox="0 0 324 58" fill="none" xmlns="http://www.w3.org/2000/svg">
<g clip-path="url(#clip0)">
<path d="M27.9408 57.8538L0.092041 58V46.7984L17.7625 46.6705L21.4172 0H32.5457L27.9408 57.8538ZM16.8123 11.2016H0.092041V0H16.8123V11.2016ZM16.8123 28.6346H0.092041V17.4512H16.8123V28.6346Z" fill="#0A0A0A"/>
<path d="M63.7564 11.9874V22.0378H79.6909V33.9521H63.7564V46.0126H79.636V57.9269H52.774V33.9521H46.8169V22.0378H52.774V11.9874H46.89V0.0730896H79.9102V11.9874H63.7564Z" fill="#0A0A0A"/>
<path d="M114.575 0L125.539 57.8538H114.41L107.96 23.8286L104.871 34.9572H93.7429L103.355 0H114.575ZM121.884 8.6799H118.503V0.0731095H121.884V8.6799ZM126.909 0.0731095V8.6799H123.529V0.0731095H126.909Z" fill="#0A0A0A"/>
<path d="M168.281 57.8538L140.414 58V46.7984L158.084 46.6705L161.739 0H172.867L168.281 57.8538ZM157.152 11.2016H140.414V0H157.152V11.2016ZM157.152 28.6346H140.414V17.4512H157.152V28.6346Z" fill="#0A0A0A"/>
<path d="M220.031 0L215.371 58H187.504V46.7984L205.175 46.6705L208.83 0H220.031ZM204.243 11.2016H187.504V0H204.243V11.2016Z" fill="#0A0A0A"/>
<path d="M234.613 0H267.633V57.8538H256.505V30.0051H245.815V42.5041H234.613V0ZM256.358 18.0542V11.8778H245.742V18.0542H256.358ZM269.424 0.0365548H272.805V8.64337H269.424V0.0365548ZM274.449 0.0365548H277.83V8.64337H274.449V0.0365548Z" fill="#0A0A0A"/>
<path d="M323.842 0L319.183 58H291.316V46.7984L308.986 46.6705L312.641 0H323.842ZM308.054 11.2016H291.316V0H308.054V11.2016Z" fill="#0A0A0A"/>
</g>
<defs>
<clipPath id="clip0">
<rect width="323.842" height="58" fill="white"/>
</clipPath>
</defs>
</svg>
