<svg width="1106" height="169" viewBox="0 0 1106 169" fill="none" xmlns="http://www.w3.org/2000/svg">
<g clip-path="url(#clip0)">
<path d="M868.2 123.6H829.9V168.4H868.2V123.6Z" fill="black"/>
<path fill-rule="evenodd" clip-rule="evenodd" d="M986.7 48.4V168.4H971.5H944.8H925.3H900.7H883.4V103.3H925.3V135.1H944.8V48.4H986.7Z" fill="black"/>
<path fill-rule="evenodd" clip-rule="evenodd" d="M1105.3 134.5H1043.9V168.5H1002V134.5V48.5H1105.4V134.5H1105.3ZM1064.8 82.4H1042.4V101.9H1064.8V82.4Z" fill="black"/>
<path fill-rule="evenodd" clip-rule="evenodd" d="M711.3 48.4H814.7V168.4H775.7V134.4H753.3V168.4H711.4V48.4H711.3ZM775.7 82.4H753.3V101.9H775.7V82.4Z" fill="black"/>
<path fill-rule="evenodd" clip-rule="evenodd" d="M118.6 48.4H222V85.3H162V96.5H222V124.3H162V135.5H222V168.4H118.6V48.4Z" fill="black"/>
<path fill-rule="evenodd" clip-rule="evenodd" d="M592.8 48.4H696.2V168.4H657.2V101.9V92.5V82.4H634.8V92.5V101.9V168.4H592.9V48.4H592.8Z" fill="black"/>
<path fill-rule="evenodd" clip-rule="evenodd" d="M0 48.4H103.4V168.4H64.4V101.9V92.5V82.4H41.9V92.5V101.9V168.4H0V48.4Z" fill="black"/>
<path fill-rule="evenodd" clip-rule="evenodd" d="M340.5 168.4H237.1V48.4H276.1V115V124.4V134.5H298.5V124.4V115V48.4H340.4V168.4H340.5Z" fill="black"/>
<path fill-rule="evenodd" clip-rule="evenodd" d="M441.7 48.4H355.7V101.2V121.4V168.4H396.2V128H413.5C416.7 128 419.3 130.6 419.3 133.8V168.5H459V112.8C459 108.5 456.7 104.8 453.2 102.8V60C453.3 53.6 448.1 48.4 441.7 48.4ZM413.5 81.7H396.2V101.2H413.5C416.7 101.2 419.3 98.6 419.3 95.4V87.4C419.3 84.3 416.7 81.7 413.5 81.7Z" fill="black"/>
<path d="M552.8 91.9H544.1V100.6H552.8V91.9Z" fill="black"/>
<path d="M568.7 48.4L550 0L532.1 48.4H519.6L501 0L483.1 48.4H474.2V168.4H577.6V48.4H568.7V48.4ZM508.6 86.8V82.5H516.4V97.2H501.7V109.3H490.4V82.4H499.1V86.7H508.6V86.8ZM561.4 132.6H554.5L553.6 140.4H547.5L548.4 132.6H537.1L536.2 140.4H530.1L531 132.6H519.7L518.8 140.4H512.7L513.6 132.6H502.3L501.4 140.4H495.3L496.2 132.6H490.1V125.7H497L497.9 117.9H504L503.1 125.7H514.4L515.3 117.9H521.4L520.5 125.7H531.8L532.7 117.9H538.8L537.9 125.7H549.2L550.1 117.9H556.2L555.3 125.7H561.4V132.6ZM561.4 109.3H535.4V82.4H561.4V109.3Z" fill="black"/>
</g>
<defs>
<clipPath id="clip0">
<rect width="1105.3" height="168.4" fill="white"/>
</clipPath>
</defs>
</svg>
